<?xml version="1.0" encoding="utf-8"?>
<!-- SVG Version: 6.00 -->
<svg version="1.2" baseProfile="tiny" id="Layer_1" xmlns="http://www.w3.org/2000/svg" xmlns:xlink="http://www.w3.org/1999/xlink"
	 x="0px" y="0px" viewBox="0 0 500 500" overflow="visible" xml:space="preserve">
<linearGradient id="SVGID_1_" gradientUnits="userSpaceOnUse" x1="25.4153" y1="249.7541" x2="475.4153" y2="249.7541">
	<stop  offset="0" style="stop-color:#2871FB"/>
	<stop  offset="1" style="stop-color:#11CCF8"/>
</linearGradient>
<path fill="url(#SVGID_1_)" d="M391,93.6c0-23.3,18.9-42.2,42.2-42.2c23.3,0,42.2,18.9,42.2,42.2V403c0,23.3-18.9,42.2-42.2,42.2
	c-23.3,0-42.2-18.9-42.2-42.2V93.6z M362.9,114c-58.1,26.7-127.7,41.7-196.9,46.6V336c10.2,0.6,20.4,1.4,30.6,2.4
	c57.7,5.7,113.6,18.8,166.3,43.9V114z M137.9,334.5V162.1c-19.1,0.8-39.3,1.2-56.5,1.5c-31,0.4-55.9,25.6-56,56.6v56.3
	c0,31.1,25.2,56.1,56.1,56.5c4.7,0.1,9.3,0.1,13.9,0.2C109.6,333.5,123.8,333.9,137.9,334.5z M177,364.9c8,0.6,16,1.3,23.9,2.2
	l7.1,47.5c2.9,15.3-7.1,30-22.4,32.9c-1.7,0.3-3.5,0.5-5.3,0.5H165c-11.2,0-21.3-6.6-25.8-16.8l-37-69.8c15.9,0.4,31.7,1,47.6,1.8
	C159,363.7,168.1,364.3,177,364.9z"/>
</svg>
