<?xml version="1.0" encoding="UTF-8" standalone="no"?> <svg width="64" height="64" viewBox="0 0 64 64" fill="none" xmlns="http://www.w3.org/2000/svg">
<path d="M56.3 2.5H7.7C6.32087 2.5 4.99823 3.04786 4.02304 4.02304C3.04786 4.99823 2.5 6.32087 2.5 7.7V43.16C2.5 44.5391 3.04786 45.8618 4.02304 46.837C4.99823 47.8121 6.32087 48.36 7.7 48.36H25.49C25.8541 50.1461 25.797 51.9924 25.3231 53.7526C24.8492 55.5127 23.9716 57.1382 22.76 58.5H17.63C17.2322 58.5 16.8506 58.658 16.5693 58.9393C16.288 59.2206 16.13 59.6022 16.13 60C16.13 60.3978 16.288 60.7794 16.5693 61.0607C16.8506 61.342 17.2322 61.5 17.63 61.5H46.37C46.7678 61.5 47.1494 61.342 47.4307 61.0607C47.712 60.7794 47.87 60.3978 47.87 60C47.87 59.6022 47.712 59.2206 47.4307 58.9393C47.1494 58.658 46.7678 58.5 46.37 58.5H41.24C40.0284 57.1382 39.1508 55.5127 38.6769 53.7526C38.203 51.9924 38.1459 50.1461 38.51 48.36H56.3C56.9829 48.36 57.6591 48.2255 58.29 47.9642C58.9208 47.7028 59.4941 47.3198 59.977 46.837C60.4598 46.3541 60.8428 45.7808 61.1042 45.15C61.3655 44.5191 61.5 43.8429 61.5 43.16V7.7C61.5 7.01713 61.3655 6.34094 61.1042 5.71005C60.8428 5.07915 60.4598 4.50591 59.977 4.02304C59.4941 3.54018 58.9208 3.15715 58.29 2.89583C57.6591 2.6345 56.9829 2.5 56.3 2.5V2.5ZM7.7 5.5H35.5C35.4628 5.64192 35.38 5.7677 35.2644 5.85803C35.1488 5.94835 35.0067 5.99823 34.86 6H28.35C23.5 6.12 23.5 13.23 28.35 13.36H29.78C30.57 13.36 30.47 14.19 30.46 14.75C30.41 14.75 22.46 14.75 22.46 14.75C19.5769 14.7632 16.8162 15.9171 14.7813 17.9595C12.7464 20.002 11.6026 22.7669 11.6 25.65C11.48 34.47 22 39.77 29 34.43H35.1C42.1 39.77 52.57 34.43 52.46 25.66C52.4574 22.7769 51.3136 20.012 49.2787 17.9695C47.2438 15.9271 44.4831 14.7732 41.6 14.76C41.6 14.76 33.6 14.76 33.51 14.76C33.5927 14.2241 33.56 13.6767 33.4142 13.1544C33.2684 12.6321 33.0127 12.147 32.6644 11.7314C32.316 11.3159 31.883 10.9795 31.3942 10.7447C30.9054 10.5099 30.3721 10.3822 29.83 10.37C29.08 10.29 27.76 10.69 27.72 9.69C27.717 9.51627 27.7806 9.34798 27.8977 9.21966C28.0149 9.09135 28.1767 9.01275 28.35 9H34.86C35.8029 8.99844 36.709 8.63406 37.3904 7.98242C38.0718 7.33077 38.4763 6.44185 38.52 5.5H56.3C56.8827 5.50263 57.4407 5.73526 57.8527 6.14727C58.2647 6.55928 58.4974 7.11733 58.5 7.7V39.09H5.5V7.7C5.50263 7.11733 5.73526 6.55928 6.14727 6.14727C6.55928 5.73526 7.11733 5.50263 7.7 5.5ZM41.48 17.75C52 18.13 52 33.17 41.5 33.57C39.6509 33.5726 37.8597 32.9248 36.44 31.74C36.1812 31.5497 35.8711 31.4416 35.55 31.43H28.45C28.1037 31.44 27.7701 31.5629 27.5 31.78C26.0949 32.9447 24.325 33.5783 22.5 33.57C20.4021 33.57 18.3902 32.7366 16.9068 31.2532C15.4234 29.7698 14.59 27.7579 14.59 25.66C14.59 23.5621 15.4234 21.5502 16.9068 20.0668C18.3902 18.5834 20.4021 17.75 22.5 17.75C22.5 17.75 41.43 17.76 41.48 17.75ZM37.48 58.5H26.48C28.3643 55.4779 29.0957 51.8778 28.54 48.36H35.42C34.8702 51.8802 35.6087 55.4805 37.5 58.5H37.48ZM56.3 45.36H7.7C7.11733 45.3574 6.55928 45.1247 6.14727 44.7127C5.73526 44.3007 5.50263 43.7427 5.5 43.16V42.09H58.5V43.16C58.4974 43.7427 58.2647 44.3007 57.8527 44.7127C57.4407 45.1247 56.8827 45.3574 56.3 45.36V45.36Z" fill="black"/>
<path d="M23.63 24.21H22.33V22.91C22.33 22.5122 22.172 22.1307 21.8907 21.8494C21.6094 21.5681 21.2278 21.41 20.83 21.41C20.4322 21.41 20.0506 21.5681 19.7693 21.8494C19.488 22.1307 19.33 22.5122 19.33 22.91V24.21H18C17.6022 24.21 17.2206 24.3681 16.9393 24.6494C16.658 24.9307 16.5 25.3122 16.5 25.71C16.5 26.1079 16.658 26.4894 16.9393 26.7707C17.2206 27.052 17.6022 27.21 18 27.21H19.3V28.5C19.3 28.8979 19.458 29.2794 19.7393 29.5607C20.0206 29.842 20.4022 30 20.8 30C21.1978 30 21.5794 29.842 21.8607 29.5607C22.142 29.2794 22.3 28.8979 22.3 28.5V27.21H23.6C23.9978 27.214 24.3809 27.0598 24.6651 26.7813C24.9492 26.5028 25.111 26.1229 25.115 25.725C25.119 25.3272 24.9648 24.9441 24.6863 24.66C24.4078 24.3759 24.0278 24.214 23.63 24.21V24.21Z" fill="black"/>
<path d="M41.3699 23.43C42.1542 23.43 42.79 22.7942 42.79 22.01C42.79 21.2257 42.1542 20.59 41.3699 20.59C40.5857 20.59 39.95 21.2257 39.95 22.01C39.95 22.7942 40.5857 23.43 41.3699 23.43Z" fill="black"/>
<path d="M37.67 27.13C38.4542 27.13 39.09 26.4943 39.09 25.71C39.09 24.9258 38.4542 24.29 37.67 24.29C36.8858 24.29 36.25 24.9258 36.25 25.71C36.25 26.4943 36.8858 27.13 37.67 27.13Z" fill="black"/>
<path d="M41.3501 30.81C42.1343 30.81 42.7701 30.1742 42.7701 29.39C42.7701 28.6057 42.1343 27.97 41.3501 27.97C40.5658 27.97 39.9301 28.6057 39.9301 29.39C39.9301 30.1742 40.5658 30.81 41.3501 30.81Z" fill="black"/>
<path d="M45.05 27.13C45.8342 27.13 46.47 26.4943 46.47 25.71C46.47 24.9258 45.8342 24.29 45.05 24.29C44.2658 24.29 43.63 24.9258 43.63 25.71C43.63 26.4943 44.2658 27.13 45.05 27.13Z" fill="black"/>
</svg>
