<?xml version="1.0" encoding="UTF-8"?>
<!DOCTYPE svg PUBLIC "-//W3C//DTD SVG 1.1//EN" "http://www.w3.org/Graphics/SVG/1.1/DTD/svg11.dtd">
<!-- Creator: CorelDRAW -->
<svg xmlns="http://www.w3.org/2000/svg" xml:space="preserve" width="1.70666in" height="1.70666in" version="1.1" style="shape-rendering:geometricPrecision; text-rendering:geometricPrecision; image-rendering:optimizeQuality; fill-rule:evenodd; clip-rule:evenodd"
viewBox="0 0 1706.66 1706.66"
 xmlns:xlink="http://www.w3.org/1999/xlink"
 xmlns:xodm="http://www.corel.com/coreldraw/odm/2003">
 <defs>
  <style type="text/css">
   <![CDATA[
    .fil0 {fill:#00CCFF}
    .fil1 {fill:#96EAFF}
   ]]>
  </style>
 </defs>
 <g id="Layer_x0020_1">
  <metadata id="CorelCorpID_0Corel-Layer"/>
  <path class="fil0" d="M255.76 710.56c-76.94,0 -139.44,-62.64 -139.44,-139.44l0 -108.89c0,-11.11 8.89,-20 20,-20l239.03 0c11.11,0 20,8.89 20,20l0 108.89c-0.14,76.94 -62.64,139.44 -139.58,139.44zm-99.44 -228.33l0 88.89c0,54.86 44.58,99.44 99.44,99.44 54.86,0 99.44,-44.58 99.44,-99.44l0 -88.89 -198.89 0z"/>
  <path class="fil0" d="M494.79 710.56c-76.94,0 -139.44,-62.64 -139.44,-139.44l0 -108.89c0,-11.11 8.89,-20 20,-20l239.03 0c11.11,0 20,8.89 20,20l0 108.89c-0.14,76.94 -62.64,139.44 -139.58,139.44zm-99.58 -228.33l0 88.89c0,54.86 44.58,99.44 99.44,99.44 54.86,0 99.44,-44.58 99.44,-99.44l0 -88.89 -198.89 0z"/>
  <path class="fil0" d="M733.82 710.56c-76.94,0 -139.44,-62.64 -139.44,-139.44l0 -108.89c0,-11.11 8.89,-20 20,-20l238.89 0c10.97,0 20,8.89 20,20l0 108.89c0,76.94 -62.63,139.44 -139.44,139.44zm-99.58 -228.33l0 88.89c0,54.86 44.58,99.44 99.44,99.44 54.86,0 99.44,-44.58 99.44,-99.44l0 -88.89 -198.89 0z"/>
  <path class="fil0" d="M972.7 710.56c-76.94,0 -139.44,-62.64 -139.44,-139.44l0 -108.89c0,-11.11 8.89,-20 20,-20l239.03 0c10.97,0 20,8.89 20,20l0 108.89c0,76.94 -62.64,139.44 -139.58,139.44zm-99.44 -228.33l0 88.89c0,54.86 44.58,99.44 99.44,99.44 54.86,0 99.44,-44.58 99.44,-99.44l0 -88.89 -198.89 0z"/>
  <path class="fil0" d="M1211.73 710.56c-76.94,0 -139.44,-62.64 -139.44,-139.44l0 -108.89c0,-11.11 9.03,-20 20,-20l239.03 0c10.97,0 20,8.89 20,20l0 108.89c0,76.94 -62.64,139.44 -139.58,139.44zm-99.44 -228.33l0 88.89c0,54.86 44.58,99.44 99.44,99.44 54.86,0 99.44,-44.58 99.44,-99.44l0 -88.89 -198.89 0z"/>
  <path class="fil0" d="M1450.76 710.56c-76.94,0 -139.44,-62.64 -139.44,-139.44l0 -108.89c0,-11.11 9.03,-20 20,-20l239.03 0c10.97,0 20,8.89 20,20l0 108.89c-0.14,76.94 -62.64,139.44 -139.58,139.44zm-99.44 -228.33l0 88.89c0,54.86 44.58,99.44 99.44,99.44 54.86,0 99.44,-44.58 99.44,-99.44l0 -88.89 -198.89 0z"/>
  <path class="fil0" d="M1450.76 1583.61l-1195 0c-11.11,0 -20,-9.03 -20,-20l0 -873.05c0,-26.36 40,-26.36 40,0l0 852.91 1155 0 0 -852.91c0,-26.33 40,-26.33 40,0l0 872.91c0,11.11 -8.89,20.14 -20,20.14z"/>
  <path class="fil0" d="M1435.06 363.75l-1170.83 0c-15.69,0 -28.47,-12.78 -28.47,-28.47l0 -306.8c0,-15.69 12.78,-28.47 28.47,-28.47l1170.83 0c15.69,0 28.47,12.78 28.47,28.47l0 306.8c0,15.69 -12.78,28.47 -28.47,28.47zm-1159.3 -40l1147.77 0 0 -283.75 -1147.77 0 0 283.75zm1159.3 -283.75l0 0z"/>
  <path class="fil0" d="M1357.29 482.22l-1015.27 0c-11.11,0 -20,-8.89 -20,-20l0 -118.47c0,-11.11 8.89,-20 20,-20l1015.27 0c10.97,0 20,8.89 20,20l0 118.47c0,10.97 -9.03,20 -20,20zm-995.27 -40l975.27 0 0 -78.47 -975.27 0 0 78.47z"/>
  <path class="fil0" d="M1270.06 1583.61l-389.17 0c-10.97,0 -20,-9.03 -20,-20l0 -541.11c0,-29.72 24.17,-53.89 53.89,-53.89l321.53 0c29.72,0 53.89,24.17 53.89,53.89l0 541.11c-0.14,10.97 -9.03,20 -20.14,20zm-369.17 -40l349.17 0 0 -521.11c0,-7.5 -6.39,-13.89 -13.89,-13.89l-321.39 0c-7.5,0 -13.89,6.39 -13.89,13.89l0 521.11z"/>
  <path class="fil0" d="M1191.87 1339.44c-10.97,0 -20,-9.03 -20,-20l0 -86.67c0,-26.3 40,-26.3 40,0l0 86.67c0,11.11 -9.03,20 -20,20z"/>
  <path class="fil0" d="M754.1 1297.36l-371.39 0c-11.11,0 -20,-9.03 -20,-20l0 -288.61c0,-10.97 8.89,-20 20,-20l371.39 0c11.11,0 20,9.03 20,20l0 288.75c0,10.97 -9.03,19.86 -20,19.86zm-351.39 -40l331.39 0 0 -248.61 -331.39 0 0 248.61z"/>
  <path class="fil0" d="M1570.2 1706.66l-1433.89 0c-11.11,0 -20,-9.03 -20,-20l0 -123.06c0,-10.97 8.89,-20 20,-20l1434.02 0c10.97,0 20,9.03 20,20l0 123.06c-0.14,10.97 -9.03,20 -20.14,20zm-1413.89 -40l1394.02 0 0 -83.06 -1394.02 0 0 83.06z"/>
  <path class="fil0" d="M603.82 1228.33c-5.14,0 -10.28,-1.94 -14.17,-5.83l-110.69 -110.69c-18.49,-18.49 9.43,-47.07 28.33,-28.33l110.69 110.69c12.46,12.46 3.73,34.17 -14.17,34.17z"/>
  <path class="fil0" d="M634.79 1166.39c-5.14,0 -10.28,-1.94 -14.17,-5.83l-79.72 -79.72c-18.49,-18.49 9.43,-47.07 28.33,-28.33l79.72 79.72c12.46,12.46 3.73,34.17 -14.17,34.17z"/>
  <path class="fil0" d="M1331.87 265.28l-162.92 0c-10.97,0 -20,-8.89 -20,-20l0 -126.94c0,-11.11 9.03,-20 20,-20l162.92 0c10.97,0 20,8.89 20,20l0 126.94c0,11.11 -8.89,20 -20,20zm-142.78 -40l122.78 0 0 -86.94 -122.78 0 0 86.94z"/>
  <path class="fil0" d="M1082.29 157.5l-714.86 0c-26.36,0 -26.36,-40 0,-40l714.86 0c26.27,0 26.43,40 0,40z"/>
  <path class="fil0" d="M1082.29 246.25l-714.86 0c-26.36,0 -26.36,-40 0,-40l714.86 0c26.27,0 26.43,40 0,40z"/>
  <path class="fil1" d="M853.26 642.99c-24.45,40.47 -68.87,67.56 -119.44,67.56 -50.66,0 -95.05,-27.15 -119.48,-67.61 -24.45,40.5 -68.87,67.61 -119.55,67.61 -50.66,0 -95.05,-27.15 -119.48,-67.61 -21.18,35.07 -57.33,60.11 -99.55,66.19l0 834.34 585.13 0 0 -520.97c0,-29.72 24.17,-53.89 53.89,-53.89l321.53 0c29.72,0 53.89,24.17 53.89,53.89l0 520.97 140.56 0 0 -834.34c-42.18,-6.09 -78.29,-31.12 -99.44,-66.13 -24.46,40.47 -68.92,67.56 -119.58,67.56 -50.63,0 -95.02,-27.13 -119.44,-67.56 -24.46,40.47 -68.92,67.56 -119.58,67.56 -50.63,0 -95.01,-27.13 -119.44,-67.56zm-470.56 325.76l371.39 0c11.11,0 20,9.03 20,20l0 288.75c0,10.97 -9.03,19.86 -20,19.86l-371.39 0c-11.11,0 -20,-9.03 -20,-20l0 -288.61c0,-10.97 8.89,-20 20,-20z"/>
  <polygon class="fil1" points="1450.76,1583.61 1270.06,1583.61 880.9,1583.61 255.76,1583.61 156.32,1583.61 156.32,1666.66 1550.34,1666.66 1550.34,1583.61 "/>
  <path class="fil1" d="M1351.31 571.11c0,54.86 44.58,99.44 99.44,99.44 54.86,0 99.44,-44.58 99.44,-99.44l0 -88.89 -192.92 0 -5.97 0 0 88.89z"/>
  <path class="fil1" d="M1211.73 670.56c54.86,0 99.44,-44.58 99.44,-99.44l0 -88.89 -198.89 0 0 88.89c0,54.86 44.58,99.44 99.44,99.44z"/>
  <path class="fil1" d="M972.7 670.56c54.86,0 99.44,-44.58 99.44,-99.44l0 -88.89 -198.89 0 0 88.89c0,54.86 44.58,99.44 99.44,99.44z"/>
  <path class="fil1" d="M733.68 670.56c54.86,0 99.44,-44.58 99.44,-99.44l0 -88.89 -198.75 0 0 88.89c-0,1.31 -0.02,2.62 -0.06,3.93 2.07,53.05 45.82,95.52 99.37,95.52z"/>
  <path class="fil1" d="M594.1 571.11l0 -88.89 -198.75 0 0 88.89c-0,1.31 -0.02,2.62 -0.06,3.93 2.07,53.05 45.82,95.52 99.37,95.52 54.86,0 99.44,-44.58 99.44,-99.44z"/>
  <path class="fil1" d="M355.21 571.11l0 -88.89 -13.19 0 -185.7 0 0 88.89c0,54.86 44.58,99.44 99.44,99.44 54.86,0 99.44,-44.58 99.44,-99.44z"/>
  <path class="fil1" d="M342.02 323.75l1015.27 0 66.25 0 0 -283.75 -1147.77 0 0 283.75 66.25 0zm740.27 -77.5l-714.86 0c-26.36,0 -26.36,-40 0,-40l714.86 0c26.27,0 26.43,40 0,40zm0 -88.75l-714.86 0c-26.36,0 -26.36,-40 0,-40l714.86 0c26.27,0 26.43,40 0,40zm249.58 107.78l-162.92 0c-10.97,0 -20,-8.89 -20,-20l0 -126.94c0,-11.11 9.03,-20 20,-20l162.92 0c10.97,0 20,8.89 20,20l0 126.94c0,11.11 -8.89,20 -20,20z"/>
 </g>
</svg>
