<?xml version="1.0" encoding="utf-8"?>
<!-- Generator: Adobe Illustrator 23.0.3, SVG Export Plug-In . SVG Version: 6.00 Build 0)  -->
<svg version="1.1" id="Layer_1" xmlns="http://www.w3.org/2000/svg" xmlns:xlink="http://www.w3.org/1999/xlink" x="0px" y="0px"
	 viewBox="0 0 24 24" style="enable-background:new 0 0 24 24;" xml:space="preserve">
<style type="text/css">
	.st0{fill:url(#SVGID_1_);}
	.st1{fill:none;stroke:#FFFFFF;stroke-width:0.75;stroke-miterlimit:10;}
	.st2{fill:url(#SVGID_2_);}
	.st3{fill:url(#SVGID_3_);}
	.st4{fill:url(#SVGID_4_);}
	.st5{fill:url(#SVGID_5_);}
	.st6{fill:url(#SVGID_6_);}
	.st7{fill:url(#SVGID_7_);}
	.st8{fill:url(#SVGID_8_);}
	.st9{fill:url(#SVGID_9_);}
	.st10{fill:url(#SVGID_10_);}
	.st11{fill:url(#SVGID_11_);}
	.st12{fill:url(#SVGID_12_);}
	.st13{fill:#FFFFFF;}
</style>
<linearGradient id="SVGID_1_" gradientUnits="userSpaceOnUse" x1="0.125" y1="12" x2="23.875" y2="12">
	<stop  offset="0" style="stop-color:#0C2684"/>
	<stop  offset="1" style="stop-color:#00B6F7"/>
</linearGradient>
<circle class="st0" cx="12" cy="12" r="11.9"/>
<circle class="st1" cx="12" cy="12" r="10.6"/>
<circle class="st1" cx="12" cy="12" r="10.3"/>
<g>
	<path class="st13" d="M7.8,18.8c-0.2,0-0.4-0.1-0.6-0.2c-0.3-0.2-0.5-0.5-0.5-0.9v-1.6c-1.1-1.4-1.6-3.2-1.4-5.1
		c0.4-2.9,2.8-5.4,5.8-5.7c2.1-0.3,4.1,0.4,5.6,1.9c1.5,1.5,2.2,3.5,2,5.6c-0.3,3-2.8,5.5-5.8,5.9c-1.2,0.2-2.4,0-3.5-0.5l-1.1,0.5
		C8.1,18.7,8,18.8,7.8,18.8z M11.2,6.2c-2.5,0.3-4.6,2.4-4.9,4.9c-0.2,1.6,0.2,3.2,1.3,4.5c0.1,0.1,0.1,0.2,0.1,0.3v1.8
		c0,0.1,0,0.1,0.1,0.1c0,0,0.1,0,0.1,0l1.3-0.6c0.1-0.1,0.3-0.1,0.4,0c1,0.5,2.1,0.6,3.2,0.5c2.6-0.3,4.7-2.5,4.9-5
		c0.2-1.8-0.4-3.5-1.7-4.8C14.8,6.6,13,6,11.2,6.2z M11.2,5.8L11.2,5.8L11.2,5.8z"/>
	<path class="st13" d="M8.7,13.5l2.2-3.1c0.1-0.2,0.3-0.2,0.5-0.1l1.5,1.1c0.1,0.1,0.2,0.1,0.3,0l1.8-1.3c0.3-0.2,0.6,0.1,0.4,0.4
		l-1.8,3.1c-0.1,0.2-0.3,0.2-0.4,0.1l-2-1.2c-0.1-0.1-0.2-0.1-0.3,0l-1.8,1.4C8.8,14,8.5,13.7,8.7,13.5z"/>
</g>
</svg>
