<?xml version="1.0" encoding="UTF-8" standalone="no"?> <svg id="Layer_1" enable-background="new 0 0 512.058 512.058" height="512" viewBox="0 0 512.058 512.058" width="512" xmlns="http://www.w3.org/2000/svg"><g><path d="m460.051 117.396h-150.365v75.655h-77.865v92.764h228.23l-50.911-84.21z" fill="#ff6326"/><path d="m123.957 54.632h215.729v168.419h-215.729z" fill="#ff8e00"/><path d="m155.338 0h-62.763v30h16.382v412.572h30v-412.572h16.381z" fill="#ffd321"/><path d="m126.421 427.572h-4.931c-38.313 0-69.484 31.171-69.484 69.485v15h143.9v-15c.001-38.314-31.17-69.485-69.485-69.485z" fill="#ffaf00"/><path d="m339.686 223.051h-107.865v62.764z" fill="#ff3838"/><path d="m460.051 117.396h-150.365v75.655h-77.865v92.764h228.23l-50.911-84.21z" fill="#ff3838"/><path d="m339.686 223.051h-107.865v62.764z" fill="#c30047"/><path d="m231.821 54.632h107.865v168.419h-107.865z" fill="#ff6326"/></g></svg>